<mxfile host="app.diagrams.net" agent="Mozilla/5.0 (Windows NT 10.0; Win64; x64; rv:140.0) Gecko/20100101 Firefox/140.0" version="27.1.4">
  <diagram id="C5RBs43oDa-KdzZeNtuy" name="Page-1">
    <mxGraphModel dx="727" dy="406" grid="1" gridSize="10" guides="1" tooltips="1" connect="1" arrows="1" fold="1" page="1" pageScale="1" pageWidth="827" pageHeight="1169" math="0" shadow="0">
      <root>
        <mxCell id="WIyWlLk6GJQsqaUBKTNV-0" />
        <mxCell id="WIyWlLk6GJQsqaUBKTNV-1" parent="WIyWlLk6GJQsqaUBKTNV-0" />
        <mxCell id="JXzyQCiw4FISLdYdSJXX-7" style="edgeStyle=orthogonalEdgeStyle;rounded=0;orthogonalLoop=1;jettySize=auto;html=1;" edge="1" parent="WIyWlLk6GJQsqaUBKTNV-1" source="JXzyQCiw4FISLdYdSJXX-1" target="JXzyQCiw4FISLdYdSJXX-6">
          <mxGeometry relative="1" as="geometry" />
        </mxCell>
        <mxCell id="JXzyQCiw4FISLdYdSJXX-1" value="Login is Pressed" style="ellipse;whiteSpace=wrap;html=1;" vertex="1" parent="WIyWlLk6GJQsqaUBKTNV-1">
          <mxGeometry x="320" y="40" width="120" height="40" as="geometry" />
        </mxCell>
        <mxCell id="JXzyQCiw4FISLdYdSJXX-2" value="&lt;div&gt;Change to Main page&lt;/div&gt;" style="ellipse;whiteSpace=wrap;html=1;" vertex="1" parent="WIyWlLk6GJQsqaUBKTNV-1">
          <mxGeometry x="440" y="320" width="140" height="40" as="geometry" />
        </mxCell>
        <mxCell id="JXzyQCiw4FISLdYdSJXX-3" value="Show error message" style="ellipse;whiteSpace=wrap;html=1;" vertex="1" parent="WIyWlLk6GJQsqaUBKTNV-1">
          <mxGeometry x="180" y="320" width="140" height="40" as="geometry" />
        </mxCell>
        <mxCell id="JXzyQCiw4FISLdYdSJXX-8" style="edgeStyle=orthogonalEdgeStyle;rounded=0;orthogonalLoop=1;jettySize=auto;html=1;fillColor=#f8cecc;strokeColor=#b85450;" edge="1" parent="WIyWlLk6GJQsqaUBKTNV-1" source="JXzyQCiw4FISLdYdSJXX-6" target="JXzyQCiw4FISLdYdSJXX-3">
          <mxGeometry relative="1" as="geometry" />
        </mxCell>
        <mxCell id="JXzyQCiw4FISLdYdSJXX-10" value="No" style="edgeLabel;html=1;align=center;verticalAlign=middle;resizable=0;points=[];" vertex="1" connectable="0" parent="JXzyQCiw4FISLdYdSJXX-8">
          <mxGeometry x="0.0111" relative="1" as="geometry">
            <mxPoint x="-14" y="-5" as="offset" />
          </mxGeometry>
        </mxCell>
        <mxCell id="JXzyQCiw4FISLdYdSJXX-9" style="edgeStyle=orthogonalEdgeStyle;rounded=0;orthogonalLoop=1;jettySize=auto;html=1;fillColor=#d5e8d4;strokeColor=#82b366;" edge="1" parent="WIyWlLk6GJQsqaUBKTNV-1" source="JXzyQCiw4FISLdYdSJXX-6" target="JXzyQCiw4FISLdYdSJXX-2">
          <mxGeometry relative="1" as="geometry" />
        </mxCell>
        <mxCell id="JXzyQCiw4FISLdYdSJXX-11" value="Yes" style="edgeLabel;html=1;align=center;verticalAlign=middle;resizable=0;points=[];" vertex="1" connectable="0" parent="JXzyQCiw4FISLdYdSJXX-9">
          <mxGeometry x="0.2111" y="3" relative="1" as="geometry">
            <mxPoint x="-4" y="-2" as="offset" />
          </mxGeometry>
        </mxCell>
        <mxCell id="JXzyQCiw4FISLdYdSJXX-6" value="&lt;div&gt;The user&lt;/div&gt;&lt;div&gt;name and password is the same&lt;/div&gt;" style="rhombus;whiteSpace=wrap;html=1;" vertex="1" parent="WIyWlLk6GJQsqaUBKTNV-1">
          <mxGeometry x="320" y="150" width="120" height="120" as="geometry" />
        </mxCell>
      </root>
    </mxGraphModel>
  </diagram>
</mxfile>
